FILE "game.iso" BINARY
  TRACK 01 MODE1/2048
    INDEX 01 00:00:00
    POSTGAP 00:02:00
FILE "TRACK1.WAV" WAVE
  TRACK 02 AUDIO
    PREGAP 00:02:00
    INDEX 01 00:00:00
FILE "TRACK2.WAV" WAVE
  TRACK 03 AUDIO
    PREGAP 00:02:00
    INDEX 01 00:00:00
FILE "TRACK3.WAV" WAVE
  TRACK 04 AUDIO
    PREGAP 00:02:00
    INDEX 01 00:00:00
FILE "TRACK4.WAV" WAVE
  TRACK 05 AUDIO
    PREGAP 00:02:00
    INDEX 01 00:00:00
